<svg width="21" height="20" viewBox="0 0 21 20" fill="none" xmlns="http://www.w3.org/2000/svg">
<path d="M9.33334 10.5917C9.25523 10.5142 9.19323 10.422 9.15093 10.3205C9.10862 10.2189 9.08684 10.11 9.08684 10C9.08684 9.89 9.10862 9.78108 9.15093 9.67953C9.19323 9.57798 9.25523 9.48581 9.33334 9.40834L13.1583 5.59168C13.2364 5.51421 13.2984 5.42204 13.3407 5.32049C13.3831 5.21894 13.4048 5.11002 13.4048 5.00001C13.4048 4.89 13.3831 4.78108 13.3407 4.67953C13.2984 4.57798 13.2364 4.48581 13.1583 4.40834C13.0022 4.25313 12.791 4.16602 12.5708 4.16602C12.3507 4.16602 12.1395 4.25313 11.9833 4.40834L8.15834 8.23334C7.69017 8.70209 7.4272 9.33751 7.4272 10C7.4272 10.6625 7.69017 11.2979 8.15834 11.7667L11.9833 15.5917C12.1386 15.7456 12.3481 15.8324 12.5667 15.8333C12.6763 15.834 12.7851 15.813 12.8866 15.7715C12.9881 15.73 13.0805 15.6689 13.1583 15.5917C13.2364 15.5142 13.2984 15.422 13.3407 15.3205C13.3831 15.2189 13.4048 15.11 13.4048 15C13.4048 14.89 13.3831 14.7811 13.3407 14.6795C13.2984 14.578 13.2364 14.4858 13.1583 14.4083L9.33334 10.5917Z" fill="#2563EB"/>
</svg>
