<svg width="21" height="20" viewBox="0 0 21 20" fill="none" xmlns="http://www.w3.org/2000/svg">
<path d="M11.6667 9.40832C11.7448 9.48579 11.8068 9.57796 11.8491 9.67951C11.8914 9.78106 11.9132 9.88998 11.9132 9.99999C11.9132 10.11 11.8914 10.2189 11.8491 10.3205C11.8068 10.422 11.7448 10.5142 11.6667 10.5917L7.84168 14.4083C7.76357 14.4858 7.70158 14.578 7.65927 14.6795C7.61696 14.7811 7.59518 14.89 7.59518 15C7.59518 15.11 7.61696 15.2189 7.65927 15.3205C7.70158 15.422 7.76357 15.5142 7.84168 15.5917C7.99782 15.7469 8.20903 15.834 8.42918 15.834C8.64934 15.834 8.86055 15.7469 9.01668 15.5917L12.8417 11.7667C13.3099 11.2979 13.5728 10.6625 13.5728 9.99999C13.5728 9.33749 13.3099 8.70207 12.8417 8.23332L9.01668 4.40832C8.86147 4.25437 8.65197 4.16758 8.43335 4.16666C8.32368 4.16602 8.21496 4.18704 8.11343 4.22851C8.0119 4.26998 7.91955 4.33109 7.84168 4.40832C7.76358 4.48579 7.70158 4.57796 7.65927 4.67951C7.61697 4.78106 7.59518 4.88998 7.59518 4.99999C7.59518 5.11 7.61697 5.21892 7.65927 5.32047C7.70158 5.42202 7.76358 5.51419 7.84168 5.59166L11.6667 9.40832Z" fill="#2563EB"/>
</svg>
